<svg xmlns="http://www.w3.org/2000/svg" version="1.1" xmlns:xlink="http://www.w3.org/1999/xlink" width="24" height="24"><svg xmlns="http://www.w3.org/2000/svg" version="1.1" xmlns:xlink="http://www.w3.org/1999/xlink" width="24" height="24"><svg xmlns="http://www.w3.org/2000/svg" width="24" height="24" viewBox="0 0 24 24"><g fill="none" stroke="#f6339a" stroke-width="1.5"><path d="M12 9a3 3 0 1 1 0-6a3 3 0 0 1 0 6ZM5.5 21a3 3 0 1 1 0-6a3 3 0 0 1 0 6Zm13 0a3 3 0 1 1 0-6a3 3 0 0 1 0 6Z"></path><path stroke-linecap="round" d="M20 13a7.98 7.98 0 0 0-2.708-6M4 13a7.98 7.98 0 0 1 2.708-6M10 20.748A8 8 0 0 0 12 21a8 8 0 0 0 2-.252"></path></g></svg></svg><style>@media (prefers-color-scheme: light) { :root { filter: none; } }
@media (prefers-color-scheme: dark) { :root { filter: none; } }
</style></svg>