<svg width="2208" height="319" viewBox="0 0 2208 319" fill="none" xmlns="http://www.w3.org/2000/svg">
<g clip-path="url(#clip0_1_611)">
<mask id="mask0_1_611" style="mask-type:luminance" maskUnits="userSpaceOnUse" x="0" y="78" width="141" height="163">
<path d="M140.866 78H0V240.531H140.866V78Z" fill="white"/>
</mask>
<g mask="url(#mask0_1_611)">
<path d="M38.6987 199.176V199.219V206.708V224.496L55.283 239.16H87.0172L102.851 224.496V206.708" stroke="black" stroke-width="4.44" stroke-miterlimit="10"/>
<path d="M130.776 150.331L106.611 192.662" stroke="black" stroke-width="4.44" stroke-miterlimit="10"/>
<path d="M99.1212 192.52L74.4675 149.356C76.6955 148.059 78.1909 145.62 78.1909 142.83H124.776" stroke="black" stroke-width="4.44" stroke-miterlimit="10"/>
<path d="M95.3979 199.219H46.1455H38.6988H38.6805L34.9388 192.662L10.6819 150.183V150.177L6.58008 142.99L6.60449 142.947L6.6106 142.941L10.7307 135.717L34.9815 93.2442L38.6805 86.7612H46.1455H95.3979H102.857H102.869L106.568 93.2442L130.727 135.569" stroke="black" stroke-width="4.44" stroke-miterlimit="10"/>
<path d="M99.1518 192.631L74.4982 149.467C76.7261 148.17 78.2215 145.731 78.2215 142.941H124.806" stroke="black" stroke-width="4.44" stroke-miterlimit="10"/>
<path d="M38.6926 224.496H102.851" stroke="black" stroke-width="4.44" stroke-miterlimit="10"/>
<path d="M70.7992 142.941L102.887 86.7119" stroke="black" stroke-width="4.44" stroke-miterlimit="10"/>
<path d="M78.2215 142.941H70.7992" stroke="black" stroke-width="4.44" stroke-miterlimit="10"/>
<path d="M38.6804 86.7612L42.3916 93.2565L67.0452 136.421L70.7808 142.965L74.4981 149.467" stroke="black" stroke-width="4.44" stroke-miterlimit="10"/>
<path d="M70.7991 142.941L38.6926 199.176" stroke="black" stroke-width="4.44" stroke-miterlimit="10"/>
<path d="M102.887 86.7119H38.6927L6.59839 142.941L38.6927 199.176" stroke="#D042A7" stroke-width="15.54" stroke-miterlimit="10"/>
<path d="M70.7686 142.99L6.59229 142.941" stroke="#D042A7" stroke-width="15.54" stroke-miterlimit="10"/>
<path d="M38.6926 94.2506C42.8087 94.2506 46.1455 90.8754 46.1455 86.7119C46.1455 82.5483 42.8087 79.1731 38.6926 79.1731C34.5765 79.1731 31.2397 82.5483 31.2397 86.7119C31.2397 90.8754 34.5765 94.2506 38.6926 94.2506Z" fill="#D042A7" stroke="black" stroke-width="3.81" stroke-miterlimit="10"/>
<path d="M38.6926 206.714C42.8087 206.714 46.1455 203.339 46.1455 199.176C46.1455 195.012 42.8087 191.637 38.6926 191.637C34.5765 191.637 31.2397 195.012 31.2397 199.176C31.2397 203.339 34.5765 206.714 38.6926 206.714Z" fill="#D042A7" stroke="black" stroke-width="3.81" stroke-miterlimit="10"/>
<path d="M110.304 199.176C110.304 203.337 106.965 206.708 102.851 206.708C98.7367 206.708 95.4222 203.362 95.3978 199.219V199.176C95.3978 196.373 96.9116 193.928 99.1517 192.631C100.244 191.995 101.502 191.637 102.851 191.637C104.2 191.637 105.506 192.007 106.611 192.662C108.82 193.971 110.304 196.397 110.304 199.176Z" stroke="black" stroke-width="3.81" stroke-miterlimit="10"/>
<path d="M102.851 94.2506C106.967 94.2506 110.304 90.8754 110.304 86.7119C110.304 82.5483 106.967 79.1731 102.851 79.1731C98.7348 79.1731 95.3978 82.5483 95.3978 86.7119C95.3978 90.8754 98.7348 94.2506 102.851 94.2506Z" fill="#D042A7" stroke="black" stroke-width="3.81" stroke-miterlimit="10"/>
<path d="M139.706 142.941C139.706 147.102 136.373 150.48 132.253 150.48C131.747 150.48 131.252 150.43 130.776 150.331C127.37 149.64 124.806 146.59 124.806 142.941C124.806 139.292 127.346 136.279 130.727 135.569C131.222 135.464 131.728 135.408 132.253 135.408C136.373 135.408 139.706 138.779 139.706 142.941Z" stroke="black" stroke-width="3.81" stroke-miterlimit="10"/>
<path d="M8.61265 150.479C12.7288 150.479 16.0655 147.104 16.0655 142.941C16.0655 138.777 12.7288 135.402 8.61265 135.402C4.49655 135.402 1.15979 138.777 1.15979 142.941C1.15979 147.104 4.49655 150.479 8.61265 150.479Z" fill="#D042A7" stroke="black" stroke-width="3.81" stroke-miterlimit="10"/>
<path d="M78.2215 142.941C78.2215 145.732 76.7261 148.17 74.4981 149.467C73.3994 150.109 72.1298 150.48 70.7748 150.48C69.4197 150.48 68.1623 150.115 67.0697 149.479C64.8418 148.189 63.3402 145.762 63.3219 142.984V142.941C63.3219 140.156 64.8174 137.724 67.0453 136.421C68.144 135.779 69.4136 135.408 70.7748 135.408C72.1359 135.408 73.4177 135.779 74.5164 136.427C76.7322 137.73 78.2215 140.156 78.2215 142.941Z" fill="#D042A7" stroke="black" stroke-width="3.81" stroke-miterlimit="10"/>
</g>
</g>
<path d="M255.664 123.847H201.407V153.553H249.834V167.859H201.407V216.18H186.232V108.761H255.664V123.847Z" fill="#C5258F"/>
<path d="M348.601 216.18H332.05L321.166 186.637H278.87L267.986 216.18H251.585L292.656 108.774H307.368L348.601 216.18ZM316.263 173.097L300.012 129.851L283.924 173.097H316.263Z" fill="#C5258F"/>
<path d="M376.503 216.18H361.177V108.774H376.503V216.18Z" fill="#C5258F"/>
<path d="M448.17 168.311C450.623 170.158 452.924 173.549 454.614 176.313L479.285 216.168H461.507L439.439 178.925C436.224 173.386 433.609 169.844 426.417 169.844H414.919V216.168H399.595V108.761H437.6C457.98 108.761 473.155 117.994 473.155 139.698C473.155 154.62 464.11 165.247 448.17 168.324V168.311ZM437.6 123.683H414.919V156.303H437.6C448.947 156.303 457.829 152.925 457.829 139.836C457.829 126.748 448.633 123.683 437.6 123.683Z" fill="#C5258F"/>
<path d="M567.853 106.768C588.954 106.768 601.94 110.527 609.442 119.881C616.835 129.099 618.426 143.234 618.426 162.47C618.426 181.707 616.835 195.844 609.442 205.061C601.938 214.414 588.954 218.174 567.853 218.174H565.867V218.16H535.517V106.768H567.853ZM554.813 198.938H570.917C585.608 198.938 592.339 196.43 595.715 190.688L595.725 190.669C597.012 188.425 597.844 185.487 598.356 181.65L598.557 179.951C599.043 175.26 599.119 169.551 599.119 162.622C599.119 156.559 599.059 151.311 598.707 146.834L598.537 144.961C598.032 140.101 597.121 136.451 595.588 133.822L595.574 133.796L595.558 133.773L595.23 133.271C591.74 128.169 584.96 125.827 570.917 125.827H554.813V198.938Z" fill="black" stroke="white" stroke-width="2"/>
<path d="M677.573 106.78L678.066 108.057L719.3 215.463L720.34 218.174H699.51L699.031 216.87L689.108 189.934L688.628 188.631H649.098L648.617 189.934L638.692 216.872L638.214 218.174H617.54L618.577 215.465L659.644 108.059L660.132 106.78H677.573ZM667.013 140.499L656.632 168.413L655.629 171.104H682.236L681.221 168.405L670.73 140.491L668.864 135.522L667.013 140.499Z" fill="black" stroke="white" stroke-width="2"/>
<path d="M791.257 106.78V125.853H759.068V218.174H739.771V125.853H707.582V106.78H791.257Z" fill="black" stroke="white" stroke-width="2"/>
<path d="M838.676 106.78L839.169 108.057L880.403 215.463L881.443 218.174H860.613L860.134 216.87L850.212 189.934L849.731 188.631H810.201L809.72 189.934L799.796 216.872L799.317 218.174H778.644L779.68 215.465L820.747 108.059L821.236 106.78H838.676ZM828.116 140.499L817.735 168.413L816.732 171.104H843.339L842.324 168.405L831.834 140.491L829.967 135.522L828.116 140.499Z" fill="black" stroke="white" stroke-width="2"/>
<path d="M950.462 216.18H935.136V108.774H950.462V216.18Z" fill="#C5258F"/>
<path d="M1049.71 216.18H1036.53L988.862 139.698V216.18H973.536V108.774H986.872L1034.39 185.256V108.774H1049.71V216.18Z" fill="#C5258F"/>
<path d="M1147.41 216.18H1134.22L1086.56 139.698V216.18H1071.23V108.774H1084.57L1132.09 185.256V108.774H1147.41V216.18Z" fill="#C5258F"/>
<path d="M1208.04 217.43C1175.85 217.43 1164.35 190.802 1164.35 162.491C1164.35 134.179 1175.85 107.551 1208.04 107.551C1240.23 107.551 1251.73 134.016 1251.73 162.491C1251.73 190.966 1240.08 217.43 1208.04 217.43ZM1208.04 122.636C1184.43 122.636 1179.68 144.027 1179.68 162.491C1179.68 180.955 1184.43 202.346 1208.04 202.346C1231.65 202.346 1236.24 180.955 1236.24 162.491C1236.24 144.027 1231.63 122.636 1208.04 122.636Z" fill="#C5258F"/>
<path d="M1344.08 108.761L1307.92 216.168H1292.89L1256.72 108.761H1272.81L1300.4 193.244L1327.98 108.761H1344.07H1344.08Z" fill="#C5258F"/>
<path d="M1432.98 216.18H1416.42L1405.54 186.637H1363.24L1352.36 216.18H1335.96L1377.03 108.774H1391.74L1432.98 216.18ZM1400.64 173.097L1384.39 129.851L1368.3 173.097H1400.64Z" fill="#C5258F"/>
<path d="M1504.81 123.859H1472.62V216.18H1457.3V123.859H1425.11V108.774H1504.81V123.859Z" fill="#C5258F"/>
<path d="M1535.85 216.18H1520.52V108.774H1535.85V216.18Z" fill="#C5258F"/>
<path d="M1598.04 217.43C1565.85 217.43 1554.35 190.802 1554.35 162.491C1554.35 134.179 1565.85 107.551 1598.04 107.551C1630.23 107.551 1641.73 134.016 1641.73 162.491C1641.73 190.966 1630.08 217.43 1598.04 217.43ZM1598.04 122.636C1574.43 122.636 1569.68 144.027 1569.68 162.491C1569.68 180.955 1574.43 202.346 1598.04 202.346C1621.65 202.346 1626.24 180.955 1626.24 162.491C1626.24 144.027 1621.63 122.636 1598.04 122.636Z" fill="#C5258F"/>
<path d="M1734.77 216.18H1721.59L1673.92 139.698V216.18H1658.6V108.774H1671.93L1719.45 185.256V108.774H1734.77V216.18Z" fill="#C5258F"/>
<path d="M1793.73 217.742C1771.81 217.742 1756.64 208.359 1751.58 187.583L1766.14 184.807C1769.67 198.348 1780.86 203.121 1793.73 203.121C1804.46 203.121 1817.33 197.431 1817.33 184.807C1817.33 158.643 1755.26 174.96 1755.26 136.637C1755.26 116.942 1772.89 107.559 1790.66 107.559C1808.44 107.559 1821.01 114.179 1828.98 130.332L1815.8 136.336C1810.28 126.023 1802.61 122.029 1790.66 122.029C1782.23 122.029 1770.43 125.571 1770.43 136.65C1770.43 159.121 1832.66 144.802 1832.66 184.82C1832.66 206.06 1813.51 217.753 1793.73 217.753V217.742Z" fill="#C5258F"/>
<path d="M1910.48 106.78V151.56H1955.55V106.78H1974.84V218.174H1955.55V170.004H1910.48V218.174H1891.19V106.78H1910.48Z" fill="black" stroke="white" stroke-width="2"/>
<path d="M2010.3 106.783V170.488C2010.3 178.811 2011.23 186.344 2014.44 191.757C2015.94 194.28 2018.04 196.505 2021.06 198.077C2024.06 199.638 2027.86 200.498 2032.68 200.498C2037.52 200.498 2041.34 199.652 2044.37 198.112C2047.42 196.561 2049.55 194.363 2051.09 191.852C2054.36 186.482 2055.37 178.958 2055.37 170.488V106.783H2074.51V171.253C2074.51 185.147 2071.88 197.208 2065.23 205.829C2058.5 214.544 2047.93 219.406 2032.83 219.406C2017.73 219.406 2007.12 214.46 2000.37 205.711C1993.68 197.058 1991 185 1991 171.253V106.783H2010.3Z" fill="black" stroke="white" stroke-width="2"/>
<path d="M2130.79 106.768C2141.06 106.768 2150.51 108.844 2157.44 113.964C2164.47 119.159 2168.64 127.296 2168.64 138.769C2168.64 145.692 2166.26 152.762 2160.8 158.191L2159.11 159.859L2161.04 161.234C2169.12 166.987 2172.63 175.953 2172.63 184.929C2172.63 196.92 2168.32 205.37 2161.08 210.749C2154.35 215.714 2145.33 217.883 2135.4 218.134L2133.42 218.158H2090.8V106.768H2130.79ZM2110.1 199.541H2133.42C2139.04 199.541 2144.04 198.947 2147.63 196.882C2149.38 195.874 2150.75 194.519 2151.74 192.688V192.674C2152.74 190.814 2153.33 188.352 2153.33 185.067C2153.33 181.888 2152.78 179.382 2151.74 177.394C2150.85 175.634 2149.6 174.384 2148.25 173.461L2147.65 173.085C2144.12 170.955 2139.09 170.293 2133.42 170.293H2110.1V199.541ZM2110.1 152.916H2131.41C2136.85 152.916 2141.42 152.213 2144.62 150.185C2146.03 149.28 2147.34 148.005 2148.25 146.111C2149.16 144.244 2149.66 141.892 2149.66 138.907C2149.66 135.862 2149.1 133.574 2148.17 131.84C2147.28 130.12 2145.95 128.854 2144.36 127.909L2144.34 127.901L2143.68 127.552C2140.39 125.883 2135.94 125.364 2130.95 125.364H2110.1V152.916Z" fill="black" stroke="white" stroke-width="2"/>
<defs>
<clipPath id="clip0_1_611">
<rect width="141" height="163" fill="white" transform="translate(0 78)"/>
</clipPath>
</defs>
</svg>
